<?xml version="1.0" standalone="no"?>
<!DOCTYPE svg PUBLIC "-//W3C//DTD SVG 20010904//EN"
 "http://www.w3.org/TR/2001/REC-SVG-20010904/DTD/svg10.dtd">
<svg version="1.0" xmlns="http://www.w3.org/2000/svg"
 width="1024.000000pt" height="1024.000000pt" viewBox="0 0 1024.000000 1024.000000"
 preserveAspectRatio="xMidYMid meet">

<g transform="translate(0.000000,1024.000000) scale(0.100000,-0.100000)"
fill="#000000" stroke="none">
<path d="M2615 7801 c-47 -22 -89 -64 -104 -104 -8 -19 -11 -323 -11 -949 0
-910 0 -922 21 -964 15 -32 31 -48 62 -62 38 -18 68 -20 312 -21 l269 -1 -1
-153 -1 -152 -284 -5 c-314 -6 -317 -6 -359 -73 -27 -43 -23 -144 7 -184 45
-61 61 -64 361 -57 l273 5 2 -173 3 -173 498 -3 497 -2 0 -875 0 -875 -666 -2
c-366 -2 -668 -1 -670 1 -2 2 -4 409 -4 903 l0 898 -109 0 c-96 0 -112 -3
-142 -23 -73 -49 -69 16 -69 -1025 0 -1020 -3 -971 58 -1035 57 -60 5 -57 939
-57 l858 0 39 23 c23 13 48 38 60 62 19 37 20 57 21 283 l0 244 98 -1 c53 0
120 0 147 -1 l50 0 0 -257 c0 -370 -13 -356 330 -351 l229 3 31 30 c42 40 54
91 45 198 l-7 87 629 -2 628 -3 5 -122 c5 -123 5 -123 38 -155 l32 -33 533 -3
532 -2 45 22 c31 16 54 38 75 72 l30 49 3 1240 c2 1208 2 1240 -17 1283 -12
26 -33 52 -53 64 -32 19 -48 20 -625 20 l-592 0 -3 -152 -3 -153 -467 -3 -468
-2 0 -150 0 -150 -155 0 -155 0 0 58 c0 33 -3 100 -6 150 l-7 92 -153 0 -154
0 0 315 0 315 155 0 155 0 0 -160 0 -160 470 0 470 0 0 160 0 160 759 0 c755
0 758 0 785 21 15 11 35 38 46 60 19 37 20 62 20 959 0 886 -1 922 -19 958
-26 51 -69 88 -116 102 -29 8 -269 10 -867 8 -821 -3 -827 -3 -855 -24 -15
-11 -38 -36 -50 -54 l-23 -33 0 -838 0 -839 -150 0 -150 0 0 844 0 843 -23 34
c-30 45 -80 69 -145 69 -59 0 -96 -17 -127 -58 -19 -25 -20 -45 -23 -284 l-3
-257 -279 -3 -280 -3 -32 -33 -33 -32 -3 -255 -3 -255 -149 0 -150 0 0 534 0
533 -22 33 c-13 18 -36 43 -51 54 -28 21 -33 21 -885 23 -818 3 -859 2 -897
-16z m1545 -1041 l0 -730 -670 0 -670 0 0 728 c0 401 2 731 4 733 2 2 304 3
670 1 l666 -2 0 -730z m3460 0 l0 -730 -640 0 -640 0 0 730 0 730 640 0 640 0
0 -730z m-2220 -145 l0 -286 -152 3 -153 3 -3 283 -2 282 155 0 155 0 0 -285z
m-320 -590 l0 -315 -305 0 -306 0 3 158 3 157 148 3 147 3 0 148 c0 81 3 151
7 154 3 4 73 7 155 7 l148 0 0 -315z m638 -158 l3 -158 -158 3 -158 3 -3 145
c-1 79 0 150 2 157 4 11 39 13 158 11 l153 -3 3 -158z m-1558 -317 l0 -160
150 0 150 0 0 -155 0 -155 -150 0 -150 0 0 155 0 155 -171 -2 -171 -3 1 -153
2 -152 -323 2 -323 3 1 38 c0 20 1 89 2 152 l2 115 160 0 160 0 0 153 c0 85 2
156 4 158 3 2 151 5 330 6 l326 2 0 -159z m920 -574 c0 -57 3 -124 6 -150 l7
-46 -162 0 -161 0 0 -455 0 -455 160 0 160 0 0 140 0 140 315 0 315 0 0 155 0
155 630 0 630 0 0 -155 0 -155 -630 0 -630 0 0 -290 0 -290 -160 0 -160 0 0
-301 0 -302 -92 7 c-50 3 -120 6 -155 6 l-63 0 0 295 0 295 -303 0 -304 0 -6
143 c-9 187 -9 1352 0 1360 3 4 141 7 305 7 l298 0 0 -104z m1898 -48 l3 -148
-161 0 -160 0 0 143 c0 79 3 147 7 151 4 3 75 5 157 4 l151 -3 3 -147z m642
-898 l0 -1050 -320 0 -320 0 0 290 0 290 160 0 160 0 0 760 0 760 160 0 160 0
0 -1050z m-2220 595 l0 -155 -155 0 -155 0 0 149 c0 134 2 150 18 153 9 3 79
5 155 6 l137 2 0 -155z m1260 -1215 l0 -150 -315 0 -315 0 0 150 0 150 315 0
315 0 0 -150z"/>
<path d="M3160 6750 l0 -400 340 0 340 0 0 400 0 400 -340 0 -340 0 0 -400z"/>
<path d="M6660 6750 l0 -400 320 0 320 0 0 400 0 400 -320 0 -320 0 0 -400z"/>
<path d="M4853 7801 c-24 -11 -51 -34 -63 -53 -44 -72 -34 -176 21 -222 28
-24 38 -26 123 -26 88 0 94 1 118 28 49 50 62 129 34 196 -34 80 -147 118
-233 77z"/>
<path d="M3160 3820 l0 -510 340 0 340 0 0 510 0 510 -340 0 -340 0 0 -510z"/>
<path d="M5160 1851 c0 -5 -8 -8 -17 -7 -10 2 -21 -1 -24 -6 -4 -6 -14 -6 -28
1 -15 9 -21 9 -21 1 0 -7 -6 -10 -12 -7 -7 2 -21 0 -31 -5 -9 -5 -16 -5 -15
-1 4 10 -5 13 -33 13 -11 0 -17 -4 -14 -10 4 -6 -1 -7 -10 -3 -10 3 -21 0 -26
-8 -6 -10 -9 -10 -9 -2 0 7 -7 10 -15 7 -11 -5 -14 -2 -9 12 6 15 3 14 -14 -4
-12 -14 -26 -21 -33 -16 -9 5 -10 1 -7 -14 4 -12 2 -20 -3 -16 -5 3 -9 13 -9
22 -1 12 -5 10 -15 -8 -8 -14 -14 -21 -15 -16 0 5 -7 3 -16 -5 -13 -11 -14 -9
-8 16 5 20 4 26 -5 21 -6 -4 -9 -12 -6 -17 8 -12 -8 -12 -21 1 -7 7 -11 6 -11
-5 0 -8 5 -15 11 -15 15 0 17 -48 2 -53 -6 -2 -3 -3 7 -2 9 2 17 0 17 -5 0 -4
11 -5 24 -3 13 3 34 0 46 -7 18 -10 24 -9 31 1 5 8 9 10 9 4 0 -5 7 -1 15 9 8
11 15 16 15 11 0 -5 -9 -18 -20 -30 -16 -17 -17 -22 -5 -22 8 0 13 3 10 5 -11
12 30 30 48 21 9 -6 21 -7 26 -4 5 3 12 -1 14 -7 4 -10 6 -10 6 0 1 15 47 16
56 1 5 -6 12 -4 20 8 7 10 17 15 21 10 4 -4 2 -7 -4 -7 -7 0 -12 -6 -12 -13 0
-7 9 -13 20 -13 15 0 19 5 14 21 -4 16 -3 17 5 5 6 -8 11 -10 11 -5 0 6 6 3
13 -6 10 -13 54 -19 65 -9 1 1 7 3 12 4 6 0 15 8 20 16 6 9 10 10 10 3 0 -7
10 -17 21 -24 12 -6 19 -7 15 -1 -3 5 12 14 33 20 35 8 39 7 33 -7 -5 -14 -4
-14 13 -1 11 9 16 10 11 3 -4 -7 -3 -13 3 -13 5 0 12 6 14 13 4 9 8 9 14 1 4
-7 22 -10 38 -8 17 3 45 7 63 9 19 2 40 9 48 16 11 9 14 7 14 -12 0 -14 3 -19
8 -13 4 7 18 14 32 15 14 2 36 15 49 29 13 14 18 17 11 8 -11 -16 -9 -18 14
-18 18 0 25 4 20 12 -4 7 -3 8 5 4 6 -4 9 -11 6 -16 -9 -15 19 -30 35 -18 12
8 12 9 -2 4 -10 -3 -18 -1 -18 4 0 5 10 10 22 12 25 4 32 17 18 38 -8 13 -13
13 -31 2 -11 -7 -23 -11 -26 -9 -6 6 39 32 49 29 4 -1 5 5 1 14 -5 13 -7 13
-15 2 -7 -10 -11 -9 -23 6 -8 11 -18 16 -22 13 -3 -4 2 -14 13 -22 19 -15 19
-15 0 -8 -15 5 -17 3 -11 -8 7 -11 6 -12 -7 -2 -8 7 -19 9 -24 5 -4 -4 -3 0 4
10 8 10 9 19 3 22 -5 4 -13 1 -16 -4 -5 -7 -12 -5 -20 7 -9 12 -16 14 -26 7
-8 -6 -26 -9 -42 -8 -15 2 -25 0 -23 -4 3 -4 -6 -9 -20 -10 -13 -1 -24 3 -24
8 0 5 8 7 18 4 14 -5 14 -3 -2 7 -16 10 -21 9 -33 -7 -12 -17 -13 -17 -13 0 0
12 -5 16 -16 12 -9 -3 -20 -6 -26 -6 -6 0 -5 -8 3 -17 13 -16 12 -17 -4 -4
-10 8 -16 20 -13 26 5 13 -41 8 -60 -6 -7 -5 -11 -3 -11 6 0 8 5 15 10 15 6 0
8 3 5 6 -4 3 -18 -2 -32 -11 -20 -14 -26 -14 -26 -4 0 12 -2 12 -9 0 -6 -9
-18 -11 -36 -7 -17 4 -24 3 -20 -4 4 -6 -4 -10 -19 -10 -16 0 -26 6 -26 14 0
8 -7 16 -15 20 -8 3 -15 1 -15 -3z m470 -31 c0 -5 -4 -10 -10 -10 -5 0 -10 5
-10 10 0 6 5 10 10 10 6 0 10 -4 10 -10z m-515 -10 c3 -6 -1 -7 -9 -4 -18 7
-21 14 -7 14 6 0 13 -4 16 -10z m478 4 c3 -3 3 -12 0 -20 -4 -10 -8 -11 -18
-1 -7 7 -11 15 -8 20 5 9 17 9 26 1z m-653 -34 c0 -6 -9 -2 -20 7 -11 10 -20
19 -20 21 0 1 9 -2 20 -8 11 -6 20 -15 20 -20z m820 -29 c0 -4 -6 -8 -14 -8
-8 0 -12 6 -9 14 5 13 23 9 23 -6z m-960 -7 c0 -2 -7 -4 -15 -4 -8 0 -15 4
-15 10 0 5 7 7 15 4 8 -4 15 -8 15 -10z m390 -44 c0 -5 -4 -10 -10 -10 -5 0
-10 5 -10 10 0 6 5 10 10 10 6 0 10 -4 10 -10z"/>
<path d="M5205 1840 c-3 -5 -1 -10 4 -10 6 0 11 5 11 10 0 6 -2 10 -4 10 -3 0
-8 -4 -11 -10z"/>
<path d="M5773 1804 c-3 -9 -2 -24 3 -32 12 -18 44 -25 44 -10 0 6 -7 8 -15 4
-8 -3 -15 -1 -15 3 0 5 -3 18 -7 28 -4 11 7 4 27 -16 33 -34 33 -35 12 -42
-24 -9 -30 -18 -9 -15 25 4 50 23 38 30 -6 4 -11 17 -11 28 0 12 -3 18 -7 15
-3 -4 -17 0 -30 8 -21 14 -24 14 -30 -1z"/>
<path d="M4681 1794 c0 -11 3 -14 6 -6 3 7 2 16 -1 19 -3 4 -6 -2 -5 -13z"/>
<path d="M4640 1791 c0 -7 -4 -10 -9 -6 -5 3 -12 1 -15 -4 -7 -11 22 -36 31
-27 3 3 1 6 -7 6 -10 0 -10 3 0 15 7 9 10 18 6 22 -3 3 -6 1 -6 -6z"/>
<path d="M5861 1786 c-9 -11 -4 -19 25 -41 30 -23 34 -24 22 -6 -7 12 -17 21
-22 21 -4 0 -6 9 -3 20 6 23 -5 26 -22 6z"/>
<path d="M4701 1771 c-7 -12 -17 -19 -22 -15 -7 4 -7 -2 1 -15 12 -23 35 -19
26 5 -3 8 -1 14 3 14 5 0 11 -6 14 -12 2 -7 7 -11 10 -8 3 3 0 16 -8 29 l-12
24 -12 -22z"/>
<path d="M5952 1737 c-8 -10 -6 -13 9 -14 19 -2 26 11 10 21 -5 3 -14 0 -19
-7z"/>
<path d="M5640 1727 c0 -2 6 -10 14 -16 11 -9 16 -9 22 1 4 7 4 10 -1 6 -4 -4
-14 -3 -22 3 -7 6 -13 9 -13 6z"/>
</g>
</svg>
